<svg xmlns="http://www.w3.org/2000/svg" xmlns:svg="http://www.w3.org/2000/svg" id="svg2" width="128" height="128" enable-background="new" version="1.1" viewBox="0 0 128 128"><defs id="defs4"><linearGradient id="linearGradient-1" x1="49.022" x2="49.022" y1="-.08" y2="97.846" gradientTransform="scale(0.46153975,2.1666606)" gradientUnits="userSpaceOnUse"><stop id="stop3343" offset="0%" stop-color="#16B0ED" stop-opacity=".8"/><stop id="stop3345" offset="100%" stop-color="#0F59B2" stop-opacity=".837"/></linearGradient><linearGradient id="linearGradient-2" x1="326.174" x2="326.174" y1="-.069" y2="98.852" gradientTransform="scale(0.46628455,2.1446132)" gradientUnits="userSpaceOnUse"><stop id="stop3348" offset="0%" stop-color="#7DB643"/><stop id="stop3350" offset="100%" stop-color="#367533"/></linearGradient><linearGradient id="linearGradient-3" x1="103.885" x2="103.885" y1="-.115" y2="178.558" gradientTransform="scale(0.84203823,1.1875945)" gradientUnits="userSpaceOnUse"><stop id="stop3353" offset="0%" stop-color="#88C649" stop-opacity=".8"/><stop id="stop3355" offset="100%" stop-color="#439240" stop-opacity=".84"/></linearGradient></defs><metadata id="metadata7"/><g id="layer1" transform="translate(0,-924.36216)"><g id="Page-1" style="fill:none;fill-rule:evenodd;stroke:none;stroke-width:1" transform="translate(134.08721,222.73276)"><g id="mark" transform="matrix(0.59861985,0,0,0.59861985,-122.46645,702.21121)"><path id="Left---green" d="M 0.02714063,45.458544 45.223647,-0.17297621 45.223646,211.99833 0.02714063,166.89384 Z" style="fill:url(#linearGradient-1)"/><path id="Right---blue" d="M 129.33671,45.889361 175.15234,-0.14833204 174.22365,211.99833 129.02714,166.89384 Z" transform="matrix(-1,0,0,1,304,0)" style="fill:url(#linearGradient-2)"/><path id="Cross---blue" d="M 45.193511,-0.13667814 162.69969,179.17338 129.81792,212.05433 12.250244,33.141173 Z" style="fill:url(#linearGradient-3)"/><path id="Shadow" d="m 45.233948,83.032105 -0.0625,7.0625 -36.2805789,-53.5625 3.3593749,-3.422181 z" style="fill:#000;fill-opacity:.12999998"/></g></g></g></svg>